<svg width="20" height="21" viewBox="0 0 20 21" fill="none" xmlns="http://www.w3.org/2000/svg">
<path d="M20 14.69C20 18.33 17.83 20.5 14.19 20.5H13C12.45 20.5 12 20.05 12 19.5V13.73C12 13.46 12.22 13.23 12.49 13.23L14.25 13.2C14.39 13.19 14.51 13.09 14.54 12.95L14.89 11.04C14.92 10.86 14.78 10.69 14.59 10.69L12.46 10.72C12.18 10.72 11.96 10.5 11.95 10.23L11.91 7.78C11.91 7.62 12.04 7.48001 12.21 7.48001L14.61 7.44C14.78 7.44 14.91 7.31001 14.91 7.14001L14.87 4.73999C14.87 4.56999 14.74 4.44 14.57 4.44L11.87 4.48001C10.21 4.51001 8.89001 5.87 8.92001 7.53L8.97 10.28C8.98 10.56 8.76001 10.78 8.48001 10.79L7.28 10.81C7.11 10.81 6.98001 10.94 6.98001 11.11L7.01001 13.01C7.01001 13.18 7.14 13.31 7.31 13.31L8.51001 13.29C8.79001 13.29 9.00999 13.51 9.01999 13.78L9.10999 19.48C9.11999 20.04 8.66999 20.5 8.10999 20.5H5.81C2.17 20.5 0 18.33 0 14.68V6.31C0 2.67 2.17 0.5 5.81 0.5H14.19C17.83 0.5 20 2.67 20 6.31V14.69Z" fill="#F53838"/>
</svg>
