<svg width="17" height="17" viewBox="0 0 17 17" fill="none" xmlns="http://www.w3.org/2000/svg">
<path d="M8.3323 1.90421C4.76895 1.90421 1.86523 4.80792 1.86523 8.37127C1.86523 11.9346 4.76895 14.8383 8.3323 14.8383C11.8957 14.8383 14.7994 11.9346 14.7994 8.37127C14.7994 4.80792 11.8957 1.90421 8.3323 1.90421ZM11.4236 6.88385L7.75673 10.5507C7.66619 10.6412 7.54332 10.6929 7.41398 10.6929C7.28464 10.6929 7.16176 10.6412 7.07122 10.5507L5.24104 8.72049C5.0535 8.53295 5.0535 8.22253 5.24104 8.03498C5.42859 7.84744 5.73901 7.84744 5.92655 8.03498L7.41398 9.52241L10.738 6.19834C10.9256 6.01079 11.236 6.01079 11.4236 6.19834C11.6111 6.38588 11.6111 6.68983 11.4236 6.88385Z" fill="#2BBC28"/>
</svg>
