<svg width="20" height="21" viewBox="0 0 20 21" fill="none" xmlns="http://www.w3.org/2000/svg">
<path d="M19.98 9.90995C19.64 4.10995 14.37 -0.360038 8.29998 0.639962C4.11998 1.32996 0.769987 4.71994 0.119988 8.89994C-0.260012 11.3199 0.240009 13.6099 1.33001 15.4999L0.439995 18.8099C0.239995 19.5599 0.929975 20.2399 1.66998 20.0299L4.92999 19.13C6.40999 20 8.13998 20.4999 9.98998 20.4999C15.63 20.4999 20.31 15.53 19.98 9.90995ZM14.88 14.2199C14.79 14.3999 14.68 14.57 14.54 14.73C14.29 15 14.02 15.2 13.72 15.32C13.42 15.45 13.09 15.51 12.74 15.51C12.23 15.51 11.68 15.39 11.11 15.14C10.53 14.89 9.96001 14.5599 9.39001 14.1499C8.81001 13.7299 8.26999 13.2599 7.74999 12.7499C7.22999 12.2299 6.76997 11.6799 6.34997 11.1099C5.93997 10.5399 5.60999 9.96994 5.36999 9.39994C5.12999 8.82994 5.01 8.27996 5.01 7.75996C5.01 7.41996 5.06999 7.08996 5.18999 6.78996C5.30999 6.47996 5.50001 6.19996 5.77001 5.94996C6.09001 5.62996 6.43999 5.47996 6.80999 5.47996C6.94999 5.47996 7.08996 5.50995 7.21996 5.56995C7.34996 5.62995 7.46999 5.71995 7.55999 5.84995L8.71996 7.48994C8.80996 7.61994 8.87998 7.72994 8.91998 7.83994C8.96998 7.94994 8.98998 8.04994 8.98998 8.14994C8.98998 8.26994 8.95 8.38996 8.88 8.50996C8.81 8.62996 8.71997 8.74994 8.59997 8.86994L8.21996 9.26994C8.15996 9.32994 8.14001 9.38995 8.14001 9.46995C8.14001 9.50995 8.14997 9.54994 8.15997 9.58994C8.17997 9.62994 8.19 9.65995 8.2 9.68995C8.29 9.85995 8.44998 10.0699 8.66998 10.3299C8.89997 10.5899 9.14002 10.8599 9.40002 11.1199C9.67002 11.3899 9.93 11.6299 10.2 11.8599C10.46 12.0799 10.68 12.23 10.85 12.32C10.88 12.33 10.91 12.3499 10.94 12.3599C10.98 12.3799 11.02 12.38 11.07 12.38C11.16 12.38 11.22 12.35 11.28 12.29L11.66 11.91C11.79 11.78 11.91 11.69 12.02 11.63C12.14 11.56 12.25 11.5199 12.38 11.5199C12.48 11.5199 12.58 11.5399 12.69 11.5899C12.8 11.6399 12.92 11.7 13.04 11.79L14.7 12.9699C14.83 13.0599 14.92 13.17 14.98 13.29C15.03 13.42 15.06 13.5399 15.06 13.6799C15 13.8499 14.96 14.0399 14.88 14.2199Z" fill="#F53838"/>
</svg>
